# AST/ASF file generated using VICON BodyLanguage
# -----------------------------------------------
:version 1.10
:name VICON
:units
  mass 1.0
  length 0.45
  angle deg
:documentation
   .ast/.asf automatically generated from VICON data using
   VICON BodyBuilder and BodyLanguage model FoxedUp or BRILLIANT.MOD
:root
   order TX TY TZ RX RY RZ
   axis XYZ
   position 0 0 0  
   orientation 0 0 0 
:bonedata
  begin
     id 1 
     name lhipjoint
     direction 0.63403 -0.759788 0.143974 
     length 2.51904 
     axis 0 0 0  XYZ
  end
  begin
     id 2 
     name lfemur
     direction 0.34202 -0.939693 0  
     length 7.42313  
     axis 0 0 20  XYZ
    dof rx ry rz
    limits (-160.0 20.0)
           (-70.0 70.0)
           (-60.0 70.0)
  end
  begin
     id 3 
     name ltibia
     direction 0.34202 -0.939693 0   
     length 8.10141   
     axis 0 0 20   XYZ
    dof rx
    limits (-10.0 170.0)
  end
  begin
     id 4 
     name lfoot
     direction 0.0927455 -0.254816 0.962532   
     length 2.14078   
     axis -90 7.62852e-016 20   XYZ
    dof rx rz
    limits (-45.0 90.0)
           (-70.0 20.0)
  end
  begin
     id 5 
     name ltoes
     direction 1.53556e-011 -4.21949e-011 1   
     length 1.07182   
     axis -90 7.62852e-016 20   XYZ
    dof rx
    limits (-90.0 20.0)
  end
  begin
     id 6 
     name rhipjoint
     direction -0.659892 -0.738223 0.139888   
     length 2.59263  
     axis 0 0 0  XYZ 
  end
  begin
     id 7 
     name rfemur
     direction -0.34202 -0.939693 0   
     length 7.58575   
     axis 0 0 -20   XYZ
    dof rx ry rz
    limits (-160.0 20.0)
           (-70.0 70.0)
           (-70.0 60.0)
  end
  begin
     id 8 
     name rtibia
     direction -0.34202 -0.939693 0   
     length 8.19358   
     axis 0 0 -20   XYZ
    dof rx
    limits (-10.0 170.0)
 end
 begin
     id 9 
     name rfoot
     direction -0.0856543 -0.235333 0.968133   
     length 2.13415  
     axis -90 -7.62852e-016 -20   XYZ
    dof rx rz
    limits (-45.0 90.0)
           (-20.0 70.0)
  end
  begin
     id 10 
     name rtoes
     direction -1.53551e-011 -4.21811e-011 1   
     length 1.07055   
     axis -90 -7.62852e-016 -20   XYZ
    dof rx
    limits (-90.0 20.0)
  end
  begin
     id 11 
     name lowerback
     direction 0.025219 0.998394 -0.0507326   
     length 1.91844   
     axis 0 0 0   XYZ
    dof rx ry rz
    limits (-20.0 45.0)
           (-30.0 30.0)
           (-30.0 30.0)
  end
  begin
     id 12 
     name upperback
     direction 0.0213103 0.99967 -0.0143101   
     length 1.92246   
     axis 0 0 0   XYZ
    dof rx ry rz
    limits (-20.0 45.0)
           (-30.0 30.0)
           (-30.0 30.0)
  end
  begin
     id 13 
     name thorax
     direction 0.00920974 0.99991 0.00971518   
     length 1.92239   
     axis 0 0 0   XYZ
    dof rx ry rz
    limits (-20.0 45.0)
           (-30.0 30.0)
           (-30.0 30.0)
  end
  begin
     id 14 
     name lowerneck
     direction 0.0598257 0.997249 0.0437612   
     length 3.13679   
     axis 0 0 0   XYZ
    dof rx ry rz
    limits (-20.0 45.0)
           (-30.0 30.0)
           (-30.0 30.0)
  end
  begin
     id 15 
     name upperneck
     direction -0.035342 0.999338 0.00863891   
     length 3.16283   
     axis 0 0 0   XYZ
    dof rx ry rz
    limits (-20.0 45.0)
           (-30.0 30.0)
           (-30.0 30.0)
  end
  begin
     id 16
     name head
     direction 0.37144 0.811566 0.450991  
     length 1.2838  
     axis 0 0 0   XYZ
    dof rx ry rz
    limits (-20.0 45.0)
           (-30.0 30.0)
           (-30.0 30.0)
  end
  begin
     id 17 
     name lclavicle
     direction 0.961094 0.274654 -0.0293862  
     length 3.63466  
     axis 0 0 0   XYZ
    dof ry rz
    limits (-20.0 10.0)
           (0.0 20.0)
  end
  begin
     id 18 
     name lhumerus
     direction 1 -4.48963e-011 1.10303e-027   
     length 5.12842   
     axis 180 -30 -90   XYZ
    dof rx ry rz
    limits (-60.0 90.0)
           (-90.0 90.0)
           (-90.0 90.0)
  end
  begin
     id 19
     name lradius
     direction 1 -4.48968e-011 4.13199e-027   
     length 3.47396   
     axis 180 -30 -90   XYZ
    dof rx
    limits (-10.0 170.0)
  end
  begin
     id 20
     name lwrist
     direction 1 -4.48948e-011 9.12708e-027   
     length 1.73698   
     axis -6.84618e-015 90 90   XYZ
    dof ry
    limits (-180.0 0.0)
 end
  begin
     id 21 
     name lhand
     direction 1 -4.49057e-011 1.82749e-026   
     length 0.728607   
     axis -1.16502e-014 90 90   XYZ
    dof rx rz
    limits (-90.0 90.0)
           (-45.0 45.0)
  end
  begin
     id 22 
     name lfingers
     direction 1 -4.48912e-011 3.64949e-026   
     length 0.587422   
     axis -2.33008e-014 90 90   XYZ
    dof rx
    limits (0.0 90.0)
  end
  begin
     id 23
     name lthumb
     direction 0.707107 -6.34995e-011 0.707107   
     length 0.843424   
     axis -90 45 5.69224e-014   XYZ
    dof rx rz
    limits (-45.0 45.0)
           (-45.0 45.0)
  end
  begin
     id 24 
     name rclavicle
     direction -0.90514 0.421881 -0.0523369   
     length 3.57139  
     axis 0 0 0   XYZ 
    dof ry rz
    limits (-10.0 20.0)
           (-20.0 0.0)
  end
  begin
     id 25 
     name rhumerus
     direction -1 -4.48954e-011 -1.76662e-027  
     length 5.48477   
     axis 180 30 90   XYZ
    dof rx ry rz
    limits (-90.0 60.0)
           (-90.0 90.0)
           (-90.0 90.0)
  end
  begin
     id 26 
     name rradius
     direction -1 -4.48982e-011 1.26841e-027   
     length 3.47856   
     axis 180 30 90   XYZ
    dof rx
    limits (-10.0 170.0)
  end
  begin
     id 27 
     name rwrist
     direction -1 -4.49037e-011 9.13554e-027   
     length 1.73928   
     axis -6.84618e-015 -90 -90   XYZ
    dof ry
    limits (-180.0 0.0)
  end
  begin
     id 28
     name rhand
     direction -1 -4.48871e-011 1.82397e-026   
     length 0.709974   
     axis -1.16502e-014 -90 -90   XYZ
    dof rx rz
    limits (-90.0 90.0)
           (-45.0 45.0)
  end
  begin
     id 29
     name rfingers
     direction -1 -4.48994e-011 3.65258e-026   
     length 0.572399   
     axis -2.33008e-014 -90 -90   XYZ
    dof rx
    limits (0.0 90.0)
  end
  begin
     id 30
     name rthumb
     direction -0.707107 -6.34861e-011 0.707107   
     length 0.821855   
     axis -90 -45 -5.69224e-014   XYZ
    dof rx rz
    limits (-45.0 45.0)
           (-45.0 45.0)
  end
:hierarchy
  begin
    root lhipjoint rhipjoint lowerback
    lhipjoint lfemur
    lfemur ltibia
    ltibia lfoot
    lfoot ltoes
    rhipjoint rfemur
    rfemur rtibia
    rtibia rfoot
    rfoot rtoes
    lowerback upperback
    upperback thorax
    thorax lowerneck lclavicle rclavicle
    lowerneck upperneck
    upperneck head
    lclavicle lhumerus
    lhumerus lradius
    lradius lwrist
    lwrist lhand lthumb
    lhand lfingers
    rclavicle rhumerus
    rhumerus rradius
    rradius rwrist
    rwrist rhand rthumb
    rhand rfingers
  end

#!OML:ASF F:\VICON\USERDATA\INSTALL\Justin1\Justin1.ASF
:FULLY-SPECIFIED
:DEGREES
3976
root 10.05 18.0754 4.60548 1.55282 48.5303 1.82766
lowerback 7.01775 -0.944845 -1.14606
upperback 1.15173 -1.24465 2.54021
thorax -2.66312 -0.592002 3.38424
lowerneck -11.7003 -2.66625 -3.62837
upperneck 36.3831 -0.0946696 -5.73115
head 14.5357 -1.04072 -1.66551
rclavicle 6.76862e-014 -7.95139e-015
rhumerus -31.8412 -13.879 -77.8295
rradius 29.4877
rwrist -5.62309
rhand -27.8535 16.0087
rfingers 7.12502
rthumb -1.24446 -13.9674
lclavicle 6.76862e-014 -7.95139e-015
lhumerus -35.2888 12.4396 82.4523
lradius 42.7131
lwrist -5.02848
lhand -11.7471 30.0694
lfingers 7.12502
lthumb 14.3007 59.5569
rfemur -31.0553 6.13671 17.1374
rtibia 18.2359
rfoot -8.76013 -19.4298
rtoes 26.2464
lfemur -5.48561 -7.98841 -25.4967
ltibia 32.012
lfoot -19.692 2.91592
ltoes 5.1333
3977
root 10.1208 18.0685 4.6942 1.72505 48.6291 2.05835
lowerback 6.97894 -0.937593 -1.26352
upperback 1.18935 -1.24358 2.55766
thorax -2.5997 -0.591597 3.46712
lowerneck -11.6568 -2.70315 -3.56702
upperneck 36.3594 -0.119264 -5.86665
head 14.5137 -1.05863 -1.73419
rclavicle 1.63003e-014 -6.36111e-015
rhumerus -31.8209 -14.0745 -77.6847
rradius 29.5448
rwrist -5.4229
rhand -28.0155 15.9343
rfingers 7.12502
rthumb -1.40084 -14.0409
lclavicle 1.63003e-014 -6.36111e-015
lhumerus -35.3278 12.3167 82.6555
lradius 42.7765
lwrist -5.03988
lhand -11.6222 29.9505
lfingers 7.12502
lthumb 14.4211 59.4295
rfemur -30.8917 5.8276 17.1323
rtibia 17.8972
rfoot -8.59727 -19.7154
rtoes 25.5097
lfemur -5.22001 -8.07529 -25.6062
ltibia 32.3158
lfoot -19.7406 2.59546
ltoes 6.00007
3978
root 10.188 18.0608 4.78396 1.85229 48.582 2.18569
lowerback 7.08444 -0.915496 -1.31602
upperback 1.11207 -1.21633 2.59174
thorax -2.73848 -0.574763 3.53381
lowerneck -11.5536 -2.70308 -3.66933
upperneck 36.4222 -0.0767153 -5.89186
head 14.5235 -1.05482 -1.72
rclavicle 1.00486e-013 -1.74931e-014
rhumerus -32.0073 -14.2669 -77.4699
rradius 29.6732
rwrist -5.07179
rhand -27.3813 15.1369
rfingers 7.12502
rthumb -0.788325 -14.8414
lclavicle 1.00486e-013 -1.74931e-014
lhumerus -35.476 12.2084 82.8119
lradius 42.7045
lwrist -4.93849
lhand -11.7533 29.8318
lfingers 7.12502
lthumb 14.2947 59.3197
rfemur -30.85 5.82715 17.1566
rtibia 17.8485
rfoot -8.90233 -20.0884
rtoes 26.6117
lfemur -5.00539 -8.2066 -25.6069
ltibia 32.6648
lfoot -19.6962 2.03549
ltoes 8.83382
3979
root 10.2575 18.0571 4.87704 1.85593 48.5183 2.27776
lowerback 7.13907 -0.897493 -1.33612
upperback 1.11088 -1.19436 2.57818
thorax -2.77162 -0.563197 3.53044
lowerneck -11.4253 -2.7146 -3.75378
upperneck 36.3773 -0.092591 -5.85959
head 14.4741 -1.06601 -1.69011
rclavicle -2.6339e-014 -1.51076e-014
rhumerus -32.111 -14.4964 -77.3636
rradius 29.6498
rwrist -4.82606
rhand -26.8152 14.7141
rfingers 7.12502
rthumb -0.241644 -15.2655
lclavicle -2.6339e-014 -1.51076e-014
lhumerus -35.5986 12.2707 82.8142
lradius 42.583
lwrist -5.08338
lhand -11.8763 29.9023
lfingers 7.12502
lthumb 14.1762 59.3986
rfemur -30.6703 5.98325 17.1956
rtibia 17.9881
rfoot -9.40577 -20.5744
rtoes 28.0324
lfemur -4.71829 -8.21629 -25.6193
ltibia 33.0897
lfoot -19.5682 1.68571
ltoes 10.1034
3980
root 10.3297 18.0526 4.96827 1.83973 48.5445 2.37995
lowerback 7.22447 -0.919683 -1.20962
upperback 1.10931 -1.21812 2.46306
thorax -2.82444 -0.576055 3.34338
lowerneck -11.3758 -2.70061 -3.64036
upperneck 36.4048 -0.104466 -5.85631
head 14.4725 -1.05471 -1.71043
rclavicle 9.93923e-016 -7.95139e-015
rhumerus -32.1458 -14.4505 -77.4971
rradius 29.497
rwrist -4.90592
rhand -26.871 14.867
rfingers 7.12502
rthumb -0.295448 -15.1126
lclavicle 9.93923e-016 -7.95139e-015
lhumerus -35.7491 12.412 82.6168
lradius 42.4647
lwrist -5.29888
lhand -11.7581 29.9037
lfingers 7.12502
lthumb 14.2901 59.3919
rfemur -30.4541 6.11065 17.2265
rtibia 18.2848
rfoot -9.85259 -21.1418
rtoes 28.7791
lfemur -4.46923 -8.178 -25.6653
ltibia 33.5633
lfoot -19.5157 1.49824
ltoes 9.8941
3981
root 10.4003 18.0418 5.06053 1.85713 48.5852 2.37434
lowerback 7.21769 -0.929564 -1.05471
upperback 1.08113 -1.22035 2.42366
thorax -2.85382 -0.578258 3.21535
lowerneck -11.3694 -2.67799 -3.49162
upperneck 36.4981 -0.0827924 -5.90709
head 14.5124 -1.03151 -1.75718
rclavicle 3.66758e-014 -3.18055e-015
rhumerus -32.2247 -14.2899 -77.5706
rradius 29.4794
rwrist -4.99554
rhand -26.9389 14.9143
rfingers 7.12502
rthumb -0.361047 -15.0651
lclavicle 3.66758e-014 -3.18055e-015
lhumerus -35.9104 12.4207 82.5542
lradius 42.3973
lwrist -5.41183
lhand -11.6038 29.7369
lfingers 7.12502
lthumb 14.4388 59.2146
rfemur -30.4566 6.03258 17.4148
rtibia 18.8121
rfoot -10.0194 -21.4188
rtoes 29.3098
lfemur -4.38361 -8.15999 -25.6166
ltibia 34.0353
lfoot -19.4216 1.37509
ltoes 9.67004
3982
root 10.4721 18.027 5.15595 2.02377 48.6938 2.48343
lowerback 7.09295 -0.926195 -1.04104
upperback 1.06216 -1.21475 2.43499
thorax -2.8042 -0.576144 3.21615
lowerneck -11.3273 -2.71522 -3.50912
upperneck 36.5128 -0.134038 -5.90281
head 14.5087 -1.05363 -1.75954
rclavicle -1.7334e-013 7.95139e-016
rhumerus -32.3994 -14.5354 -77.4154
rradius 29.5903
rwrist -4.77731
rhand -26.8024 14.8694
rfingers 7.12502
rthumb -0.229245 -15.1102
lclavicle -1.7334e-013 7.95139e-016
lhumerus -36.0128 12.4569 82.6521
lradius 42.2464
lwrist -5.67709
lhand -11.6234 29.6204
lfingers 7.12502
lthumb 14.4199 59.0994
rfemur -30.5439 5.67523 17.6046
rtibia 19.5024
rfoot -9.98732 -21.3542
rtoes 30.1759
lfemur -4.39171 -8.11677 -25.6394
ltibia 34.5559
lfoot -19.1813 1.47359
ltoes 7.95522
